<?xml version="1.0" standalone="no"?>
<!DOCTYPE svg PUBLIC "-//W3C//DTD SVG 20010904//EN"
 "http://www.w3.org/TR/2001/REC-SVG-20010904/DTD/svg10.dtd">
<svg version="1.0" xmlns="http://www.w3.org/2000/svg"
 width="736.000000pt" height="736.000000pt" viewBox="0 0 736.000000 736.000000"
 preserveAspectRatio="xMidYMid meet">
<metadata>
Created by potrace 1.14, written by Peter Selinger 2001-2017
</metadata>
<g transform="translate(0.000000,736.000000) scale(0.100000,-0.100000)"
fill="#000000" stroke="none">
<path d="M5864 7348 c6 -16 56 -172 129 -408 73 -233 111 -485 137 -905 23
-383 41 -615 56 -730 33 -262 65 -495 80 -589 23 -139 16 -198 -40 -336 -49
-121 -100 -208 -138 -235 -155 -109 -255 -164 -345 -189 -99 -28 -176 -62
-229 -102 -17 -13 -33 -24 -36 -24 -3 0 -8 15 -11 33 -3 17 -17 79 -30 135
l-25 104 26 -24 26 -23 -17 25 c-28 41 -48 90 -58 144 -10 58 -47 187 -48 169
-1 -21 58 -308 91 -442 28 -117 29 -126 14 -152 -27 -45 -18 -44 35 6 67 62
269 157 269 125 0 -5 -5 -10 -11 -10 -16 0 -110 -42 -105 -47 3 -3 34 7 70 21
68 27 86 31 86 18 0 -5 -24 -16 -53 -25 -129 -41 -228 -139 -197 -197 13 -25
13 -30 -5 -30 -8 0 -15 -4 -15 -10 0 -5 -7 -7 -15 -4 -8 4 -15 2 -15 -3 0 -5
-9 -9 -21 -10 -13 -1 -27 10 -40 30 l-21 32 6 -30 c4 -16 22 -44 42 -61 l35
-32 -31 -26 c-18 -14 -35 -26 -40 -26 -4 0 -11 26 -15 58 -11 95 -33 189 -80
348 -31 105 -52 198 -65 300 -11 82 -26 183 -35 224 -9 41 -22 110 -30 152
-14 83 -34 134 -34 88 0 -25 2 -47 34 -285 20 -144 23 -392 7 -495 -6 -41 -25
-150 -41 -241 -38 -216 -156 -619 -181 -619 -4 0 -22 -39 -40 -87 -18 -49 -59
-148 -92 -222 -32 -73 -57 -135 -54 -138 7 -7 52 85 116 238 31 74 65 145 76
156 10 12 27 32 36 46 22 32 210 177 220 171 5 -3 8 -20 8 -37 0 -46 27 -192
46 -252 9 -27 35 -86 57 -130 72 -143 327 -373 544 -492 86 -47 221 -93 271
-93 17 0 32 -3 32 -6 0 -4 -48 -56 -106 -117 -130 -136 -169 -187 -227 -300
-80 -154 -101 -228 -203 -724 -111 -542 -206 -838 -296 -919 -12 -12 -37 -25
-54 -28 -31 -7 -31 -7 -43 51 -36 169 -51 275 -52 357 -1 78 3 100 25 150 59
134 86 314 86 576 0 80 -5 177 -10 215 -19 134 -88 342 -161 490 -58 118 -72
157 -90 250 -12 64 -37 148 -59 200 -21 50 -46 117 -55 150 -9 33 -18 66 -21
73 -6 19 -60 -11 -116 -66 -53 -51 -67 -87 -22 -57 38 25 42 9 7 -28 l-30 -32
3 -365 c2 -236 7 -366 14 -368 16 -6 12 -52 -5 -58 -21 -9 -19 -33 11 -93 28
-59 27 -75 -3 -37 l-20 25 -7 -67 c-11 -117 -11 -115 44 -151 27 -17 66 -51
86 -74 36 -43 84 -126 84 -149 0 -6 -11 11 -26 39 -31 63 -139 165 -133 126 1
-5 1 -10 -1 -13 -6 -18 -4 -87 3 -98 6 -7 7 -15 3 -19 -3 -3 -6 -1 -6 5 0 7
-5 12 -11 12 -11 0 -4 -325 11 -459 0 -3 6 4 14 14 13 18 14 18 9 -8 -3 -15
-9 -27 -13 -27 -5 0 -7 -46 -5 -103 2 -56 7 -209 11 -339 l7 -238 142 0 142 0
7 46 c3 26 6 61 7 78 1 29 2 29 10 -9 5 -22 14 -57 20 -77 l10 -38 73 0 73 0
80 153 c111 210 162 373 248 793 30 148 62 296 70 329 9 33 17 69 19 80 23
117 89 307 141 405 7 14 25 49 39 78 25 53 46 61 46 19 0 -25 106 -362 152
-480 33 -87 50 -100 19 -16 -26 74 -115 358 -140 449 -33 117 -32 118 61 204
46 41 83 74 84 73 1 -1 12 -81 24 -177 28 -230 46 -339 76 -479 33 -151 94
-474 90 -478 -2 -2 -14 17 -27 41 -13 25 -25 43 -27 41 -5 -5 37 -87 56 -107
8 -10 11 -18 6 -18 -10 0 -75 80 -145 180 -79 112 -170 269 -251 435 -44 88
-76 149 -73 135 3 -14 48 -108 98 -210 96 -193 190 -343 310 -495 39 -49 72
-99 72 -110 1 -11 9 -42 18 -70 9 -27 26 -90 37 -140 28 -120 123 -427 168
-542 l36 -93 373 0 373 0 0 916 c0 878 -1 920 -19 983 -24 79 -51 223 -50 260
0 14 13 -23 29 -84 16 -60 31 -117 34 -125 2 -8 3 50 2 130 -2 128 -6 159 -34
265 -40 148 -103 460 -132 658 -19 128 -21 158 -11 224 6 42 9 78 6 81 -3 3
-5 -2 -5 -11 0 -31 -71 -232 -95 -268 -36 -56 -331 -403 -438 -516 -87 -92
-123 -137 -82 -103 9 7 18 11 20 8 11 -11 -107 -126 -156 -153 -47 -26 -63
-30 -124 -28 -38 1 -81 6 -95 12 -21 8 -17 10 31 10 47 1 59 5 80 28 13 15 17
22 7 15 -13 -11 -18 -10 -30 5 -14 19 -74 50 -63 33 3 -5 -3 -10 -14 -10 -23
0 -28 16 -8 23 6 2 -15 3 -48 2 -33 -2 -49 -1 -35 2 14 3 30 9 36 14 7 6 28 3
54 -6 23 -8 58 -15 76 -15 26 0 34 -4 34 -17 1 -17 1 -17 11 -1 6 10 22 18 37
18 37 0 110 22 94 27 -8 3 6 18 35 38 26 18 84 74 128 126 44 52 114 132 156
179 79 87 229 276 288 363 46 68 67 135 85 271 16 121 32 196 43 196 5 0 -4
-94 -14 -140 -3 -14 -3 -22 1 -19 4 4 18 60 31 125 32 154 37 167 90 253 46
75 64 134 22 71 -22 -33 -254 -420 -345 -576 -78 -135 -234 -252 -324 -242
l-28 3 78 135 c43 74 106 187 141 250 82 154 121 202 221 282 47 37 129 113
182 170 l98 103 0 1698 0 1697 -201 0 c-187 0 -201 -1 -196 -17 3 -10 19 -56
37 -103 17 -47 34 -94 37 -105 13 -53 -19 19 -54 118 l-37 107 -513 0 -512 0
20 -47 c11 -27 65 -138 119 -248 79 -158 125 -271 221 -540 136 -382 152 -432
144 -445 -3 -5 6 -51 19 -102 22 -84 33 -135 50 -236 4 -20 2 -31 -4 -27 -6 3
-10 21 -10 38 0 18 -7 50 -14 72 -8 22 -26 83 -39 135 -14 52 -37 115 -50 140
-13 25 -33 69 -43 98 -26 74 -37 65 -28 -20 13 -120 6 -358 -17 -576 -20 -198
-20 -212 -5 -332 9 -69 21 -205 26 -303 6 -97 17 -214 25 -260 39 -214 23
-167 -48 148 -47 206 -68 388 -112 980 -19 264 -44 543 -55 620 -11 77 -22
169 -26 205 -10 107 -31 193 -95 394 -94 295 -99 306 -121 306 -12 0 -18 -5
-14 -12z m478 -2892 c0 -17 4 -48 10 -70 9 -35 7 -41 -17 -66 -15 -16 -24 -33
-20 -40 4 -6 -21 -40 -58 -78 -36 -37 -93 -101 -128 -142 -34 -41 -88 -103
-120 -138 -33 -34 -70 -80 -84 -102 -33 -53 -41 -51 -14 3 34 67 120 194 200
297 41 52 84 111 96 130 30 50 78 174 94 244 l13 60 14 -34 c7 -18 14 -47 14
-64z m-303 -389 c-19 -19 -40 -32 -47 -29 -7 2 5 17 30 37 53 41 62 37 17 -8z
m-94 -57 c-3 -5 -12 -10 -18 -10 -7 0 -6 4 3 10 19 12 23 12 15 0z m-681 -151
c14 -74 36 -182 50 -241 14 -59 26 -122 26 -139 0 -29 -60 -152 -81 -165 -5
-3 -9 -15 -9 -28 0 -24 -56 -82 -135 -138 -28 -20 -59 -46 -69 -57 -31 -34
-37 -24 -15 26 11 26 38 110 60 187 21 78 48 172 59 210 11 38 34 163 52 277
17 115 33 207 35 205 2 -1 14 -63 27 -137z m50 36 c53 -162 90 -385 67 -400
-7 -4 -14 -5 -16 -3 -8 8 -95 458 -95 492 0 25 20 -15 44 -89z m645 78 c-19
-24 -31 -33 -49 -33 -8 0 1 11 20 25 42 29 47 30 29 8z m-79 -33 c8 -5 11 -10
5 -10 -5 0 -17 5 -25 10 -8 5 -10 10 -5 10 6 0 17 -5 25 -10z m-46 -21 c-27
-11 -34 -10 -34 0 0 11 31 20 44 13 5 -3 1 -9 -10 -13z m-25 -304 c0 -5 -4 -3
-9 5 -5 8 -9 22 -9 30 0 16 17 -16 18 -35z m-269 -113 c-25 -44 -30 -48 -30
-24 0 15 4 21 12 16 7 -5 9 -2 5 8 -6 18 1 30 14 22 5 -3 5 -13 -1 -22z m366
-117 c21 -52 7 -38 -18 17 -11 24 -15 39 -9 33 5 -5 17 -28 27 -50z m-581 -62
c-1 -21 -3 -44 -4 -50 -2 -24 -21 -13 -21 12 0 21 19 75 26 75 2 0 1 -17 -1
-37z m765 -218 c36 -38 52 -58 36 -45 -39 33 -100 100 -105 114 -2 6 -2 9 0 6
2 -3 33 -37 69 -75z m135 -103 c-3 -3 -11 0 -18 7 -9 10 -8 11 6 5 10 -3 15
-9 12 -12z m182 -58 c-3 -3 -12 -4 -19 -1 -8 3 -5 6 6 6 11 1 17 -2 13 -5z
m56 -11 c-7 -2 -21 -2 -30 0 -10 3 -4 5 12 5 17 0 24 -2 18 -5z m165 -10 c-21
-2 -55 -2 -75 0 -21 2 -4 4 37 4 41 0 58 -2 38 -4z m-1068 -123 c0 -5 -2 -10
-4 -10 -3 0 -8 5 -11 10 -3 6 -1 10 4 10 6 0 11 -4 11 -10z m140 -147 c0 -2
-5 -1 -12 3 -7 4 -8 3 -4 -4 4 -6 13 -9 20 -6 8 3 23 -6 33 -20 11 -14 22 -23
25 -21 3 3 13 -4 23 -15 15 -17 16 -20 3 -15 -9 4 -19 2 -22 -3 -3 -5 6 -8 21
-6 17 2 33 -5 45 -19 11 -12 16 -15 12 -7 -5 8 4 5 21 -8 31 -24 42 -72 16
-72 -11 0 -10 -4 4 -20 10 -11 16 -20 12 -20 -10 0 -87 44 -105 60 -9 8 -30
23 -46 34 -23 14 -26 20 -15 28 11 8 11 9 -1 5 -18 -5 -134 95 -123 106 10 10
25 8 18 -2 -3 -5 -1 -12 5 -16 5 -3 10 -1 10 5 0 6 5 8 11 4 8 -5 8 -9 -1 -14
-9 -6 -9 -9 0 -15 13 -8 23 -1 26 20 1 8 -3 15 -9 15 -7 0 -6 4 2 9 12 8 8 15
-19 38 -19 15 -38 27 -43 25 -5 -1 -6 2 -3 7 4 5 2 12 -4 16 -5 3 -10 11 -10
16 0 6 25 -15 55 -46 30 -32 55 -59 55 -62z m-118 -20 c100 -92 197 -167 306
-238 65 -42 87 -62 77 -67 -7 -5 -26 -3 -42 4 -74 33 -297 209 -323 255 -7 12
-16 20 -20 18 -4 -2 -13 7 -20 20 -7 13 -17 22 -22 19 -5 -3 -7 0 -6 8 2 7 -3
12 -9 11 -7 -2 -13 3 -13 11 0 8 -6 17 -12 19 -10 4 -10 6 -1 6 7 1 46 -29 85
-66z m1133 -112 c-3 -6 1 -13 8 -18 29 -17 37 -56 42 -188 3 -76 14 -181 26
-238 11 -56 24 -127 29 -157 5 -30 12 -71 16 -90 6 -33 6 -34 -9 -15 -20 25
-21 11 -2 -60 8 -31 12 -62 8 -70 -3 -8 0 -15 6 -15 8 0 10 -11 5 -35 -4 -24
-3 -35 6 -35 8 0 10 -9 6 -26 -5 -18 -3 -24 4 -19 7 5 11 0 9 -11 -4 -34 13
-104 24 -97 5 3 7 1 4 -4 -4 -6 2 -37 13 -69 11 -32 18 -66 14 -76 -3 -10 -1
-18 5 -18 6 0 11 4 11 10 0 5 9 6 22 1 27 -10 62 -71 48 -85 -6 -6 -10 -17 -9
-26 0 -11 3 -9 10 5 10 22 5 -36 -13 -142 l-10 -62 -49 58 c-76 91 -77 95 -71
229 4 103 1 133 -21 228 -85 362 -171 996 -140 1027 10 10 15 8 8 -2z m-725
-75 c0 -3 -4 -8 -10 -11 -5 -3 -10 -1 -10 4 0 6 5 11 10 11 6 0 10 -2 10 -4z
m147 -63 c-7 -6 -67 9 -67 17 0 5 16 3 35 -3 19 -6 33 -12 32 -14z m-121 -23
c22 -12 28 -18 14 -14 -23 6 -71 34 -59 34 3 0 23 -9 45 -20z m44 16 c0 -3 -4
-8 -10 -11 -5 -3 -10 -1 -10 4 0 6 5 11 10 11 6 0 10 -2 10 -4z m90 -49 c-27
-15 -36 -14 -25 2 3 6 16 11 28 11 21 0 21 -1 -3 -13z m-146 -22 c-5 -11 -9
-12 -19 -2 -9 8 -10 14 -2 19 16 9 27 0 21 -17z m274 9 c12 -8 22 -19 22 -24
0 -9 -33 -7 -60 3 -8 3 -26 8 -40 10 -20 4 -19 5 8 6 17 0 32 6 32 11 0 14 12
12 38 -6z m-244 -19 c-4 -8 -11 -12 -16 -9 -6 4 -5 10 3 15 19 12 19 11 13 -6z
m-854 -426 c0 -4 -7 -10 -16 -13 -12 -5 -14 -1 -9 15 5 14 3 19 -4 15 -7 -5
-9 -1 -5 9 6 14 8 14 20 -2 7 -10 14 -21 14 -24z m8 -26 c-1 -5 4 -21 11 -37
6 -16 9 -36 7 -43 -3 -8 -2 -12 3 -9 15 9 21 -22 11 -52 -9 -25 -9 -26 5 -8 8
11 15 15 15 9 0 -6 3 -20 6 -30 4 -14 4 -15 -4 -4 -5 7 -14 11 -20 7 -18 -11
-42 40 -35 75 4 20 2 30 -4 26 -7 -5 -11 54 -4 71 3 6 11 1 9 -5z m1659 -100
c-3 -10 -5 -4 -5 12 0 17 2 24 5 18 2 -7 2 -21 0 -30z m-1607 -104 c0 -6 -4
-7 -10 -4 -5 3 -10 11 -10 16 0 6 5 7 10 4 6 -3 10 -11 10 -16z m37 -111 c-3
-8 -6 -5 -6 6 -1 11 2 17 5 13 3 -3 4 -12 1 -19z m24 -304 c0 -279 -31 -470
-91 -559 -23 -35 -26 -27 -5 15 55 106 92 409 82 680 -3 97 -2 133 5 110 5
-19 9 -130 9 -246z m1606 244 c-3 -8 -6 -5 -6 6 -1 11 2 17 5 13 3 -3 4 -12 1
-19z m31 -123 c-3 -3 -9 2 -12 12 -6 14 -5 15 5 6 7 -7 10 -15 7 -18z m32 -36
c0 -6 -4 -7 -10 -4 -5 3 -10 11 -10 16 0 6 5 7 10 4 6 -3 10 -11 10 -16z
m-1983 -241 c-3 -8 -6 -5 -6 6 -1 11 2 17 5 13 3 -3 4 -12 1 -19z m-146 -435
c-9 -16 -10 -14 -11 12 0 21 3 26 11 18 8 -8 8 -16 0 -30z m6 -265 c-3 -8 -6
-5 -6 6 -1 11 2 17 5 13 3 -3 4 -12 1 -19z"/>
<path d="M5695 2620 c3 -5 10 -10 16 -10 5 0 9 5 9 10 0 6 -7 10 -16 10 -8 0
-12 -4 -9 -10z"/>
<path d="M5845 2510 c-4 -6 1 -7 11 -3 12 4 15 3 10 -5 -4 -7 -3 -12 3 -12 17
0 21 18 5 24 -21 8 -22 8 -29 -4z"/>
<path d="M6791 1954 c0 -11 3 -14 6 -6 3 7 2 16 -1 19 -3 4 -6 -2 -5 -13z"/>
<path d="M6901 1304 c0 -11 3 -14 6 -6 3 7 2 16 -1 19 -3 4 -6 -2 -5 -13z"/>
<path d="M6898 1240 c-2 -22 1 -48 5 -57 7 -11 6 -14 -2 -9 -6 4 -11 1 -11 -6
1 -18 28 -76 29 -60 1 6 6 12 12 12 5 0 7 -5 3 -11 -3 -6 0 -15 7 -20 11 -7
11 -9 1 -9 -8 0 -6 -7 7 -21 22 -24 41 -18 40 14 0 21 -1 21 -10 -2 -11 -29
-21 -24 -12 7 3 12 11 22 18 22 9 0 10 13 4 48 -4 26 -5 49 -3 51 2 2 -5 16
-16 31 -11 16 -20 34 -20 40 0 10 -3 10 -15 0 -10 -9 -15 -9 -15 -1 0 6 -4 11
-9 11 -5 0 -11 -18 -13 -40z m39 -42 c-3 -8 -6 -5 -6 6 -1 11 2 17 5 13 3 -3
4 -12 1 -19z m29 -86 c-15 -15 -15 -15 -4 10 7 15 15 23 17 17 2 -6 -4 -18
-13 -27z"/>
<path d="M6966 1271 c-4 -6 2 -21 13 -33 24 -26 26 -21 7 17 -8 15 -17 22 -20
16z"/>
<path d="M5192 1728 c2 -5 8 -9 13 -9 5 0 11 4 13 9 1 5 -4 9 -13 9 -9 0 -14
-4 -13 -9z"/>
<path d="M2781 7075 c-30 -14 -76 -41 -102 -60 -27 -19 -79 -50 -117 -69 -70
-35 -70 -35 -74 -81 -3 -37 0 -44 12 -39 93 35 284 44 417 19 43 -8 80 -15 83
-14 14 1 -88 38 -108 38 -12 1 -25 7 -28 15 -4 11 -20 13 -67 10 -94 -7 -193
-23 -239 -39 -33 -11 -44 -11 -50 -2 -21 33 1 55 101 97 87 37 163 48 225 30
44 -12 44 -12 94 27 67 53 128 70 200 55 89 -19 108 -46 40 -57 -54 -8 -168
-42 -188 -55 -19 -12 -10 -12 65 -1 33 5 111 12 174 15 63 3 116 8 119 11 3 3
-2 5 -11 5 -10 0 -39 23 -65 51 -55 58 -33 53 -287 64 -136 6 -141 5 -194 -20z
m166 -19 c-63 -50 -86 -66 -93 -66 -4 0 0 6 10 13 15 11 6 12 -52 9 -107 -6
-116 0 -52 33 54 28 142 45 189 36 l25 -4 -27 -21z"/>
<path d="M3416 6849 c-57 -14 -57 -20 0 -13 52 7 97 24 59 23 -11 -1 -38 -5
-59 -10z"/>
<path d="M2402 6790 c-29 -17 -81 -59 -115 -93 -35 -34 -50 -51 -33 -37 17 14
33 27 36 30 21 22 103 83 140 104 25 14 41 26 35 26 -5 0 -34 -14 -63 -30z"/>
<path d="M4190 6678 c0 -2 26 -26 58 -53 31 -27 48 -39 37 -26 -21 24 -95 86
-95 79z"/>
<path d="M2680 6600 c-9 -6 -10 -10 -3 -10 6 0 15 5 18 10 8 12 4 12 -15 0z"/>
<path d="M3785 6470 c21 -22 41 -40 43 -40 9 0 -63 78 -73 79 -5 1 9 -17 30
-39z"/>
<path d="M4380 6504 c0 -5 154 -191 173 -209 27 -25 -77 108 -135 172 -21 24
-38 40 -38 37z"/>
<path d="M3293 6413 c181 -237 278 -506 308 -848 20 -227 17 -604 -4 -745 -24
-154 -43 -246 -62 -299 -19 -56 -18 -87 2 -41 20 45 58 218 77 345 13 88 19
103 42 122 44 35 277 93 375 93 39 0 50 -4 60 -22 15 -28 79 -218 79 -235 0
-9 -14 -13 -44 -13 -110 0 -340 -62 -391 -106 -29 -25 -29 -25 -5 -19 l25 7
-21 -23 c-26 -30 -79 -123 -68 -118 5 2 38 20 74 40 36 21 75 40 87 44 21 6
22 4 16 -46 -6 -48 -5 -52 12 -45 10 3 34 9 54 12 20 3 48 12 63 20 27 14 28
13 28 -8 0 -13 9 -38 20 -56 17 -27 25 -32 43 -26 35 10 39 19 39 73 0 48 2
51 24 46 13 -3 36 -7 52 -10 15 -3 35 -8 45 -11 24 -7 23 41 -3 131 -11 39
-27 97 -35 130 -9 33 -31 102 -49 153 l-34 92 55 0 c38 0 53 4 51 12 -3 8 -24
11 -62 9 -52 -2 -58 0 -63 20 -9 32 -93 203 -149 301 -60 105 -228 363 -263
403 -72 84 -98 123 -117 174 -62 163 -186 381 -268 474 -43 47 -39 29 7 -30z
m377 -653 c85 -119 153 -231 146 -238 -8 -7 -148 136 -180 185 -15 22 -34 67
-41 100 -18 72 -19 95 -3 68 6 -11 42 -63 78 -115z m293 -466 c45 -80 107
-213 107 -231 0 -2 -29 -3 -65 -3 -124 0 -326 -52 -350 -90 -15 -24 -25 -6
-20 38 17 173 12 416 -11 620 l-6 53 144 -144 c125 -124 152 -156 201 -243z
m237 -624 c0 -5 -2 -10 -4 -10 -3 0 -8 5 -11 10 -3 6 -1 10 4 10 6 0 11 -4 11
-10z"/>
<path d="M2380 6407 c-14 -12 -37 -35 -50 -52 -14 -16 -1 -8 28 20 28 27 52
51 52 52 0 6 -6 2 -30 -20z"/>
<path d="M4560 6405 c13 -14 26 -25 28 -25 3 0 -5 11 -18 25 -13 14 -26 25
-28 25 -3 0 5 -11 18 -25z"/>
<path d="M1939 6323 c-13 -16 -12 -17 4 -4 9 7 17 15 17 17 0 8 -8 3 -21 -13z"/>
<path d="M1894 6263 c-27 -33 -105 -151 -128 -193 -21 -37 16 13 88 118 78
114 93 142 40 75z"/>
<path d="M4902 5943 c35 -68 67 -123 71 -123 10 0 -86 186 -114 220 -11 14 8
-30 43 -97z"/>
<path d="M1705 5969 c-4 -6 -5 -12 -2 -15 2 -3 7 2 10 11 7 17 1 20 -8 4z"/>
<path d="M1666 5892 c-58 -114 -193 -478 -182 -489 2 -2 18 40 36 94 37 113
104 280 149 372 17 36 29 66 27 69 -3 2 -16 -18 -30 -46z"/>
<path d="M4790 5845 c0 -16 84 -204 92 -205 9 0 0 23 -51 130 -22 47 -41 81
-41 75z"/>
<path d="M2021 5794 c0 -11 3 -14 6 -6 3 7 2 16 -1 19 -3 4 -6 -2 -5 -13z"/>
<path d="M2001 5704 c0 -11 3 -14 6 -6 3 7 2 16 -1 19 -3 4 -6 -2 -5 -13z"/>
<path d="M4000 5667 c0 -4 16 -39 35 -77 137 -272 241 -659 248 -921 2 -85 17
-117 17 -37 l0 40 37 -7 c53 -10 54 -11 47 -58 -11 -70 -44 -145 -75 -171 -16
-14 -29 -27 -29 -29 0 -3 12 -7 28 -9 15 -3 35 -9 46 -13 18 -8 18 -7 1 18
-16 25 -16 28 5 57 12 17 25 29 28 25 3 -3 -5 -19 -17 -36 -20 -27 -21 -30 -5
-27 9 1 24 18 33 35 9 18 22 33 29 33 6 0 12 9 12 20 0 11 5 20 12 20 8 0 10
-33 5 -122 -6 -142 3 -131 27 29 46 319 -18 808 -151 1156 -15 37 -28 65 -30
63 -2 -2 12 -55 31 -117 73 -236 118 -470 97 -505 -10 -17 -11 -16 -5 7 5 25
5 26 -55 26 -68 0 -94 15 -86 47 4 13 3 16 -2 9 -19 -27 -64 52 -113 201 -40
120 -170 383 -170 343z m285 -633 c39 -40 162 -260 151 -272 -5 -4 -136 15
-141 20 -4 3 -45 245 -45 261 0 12 18 8 35 -9z m111 -21 c2 -27 1 -27 -14 3
-8 15 -8 21 1 21 7 0 13 -11 13 -24z"/>
<path d="M1991 5644 c0 -11 3 -14 6 -6 3 7 2 16 -1 19 -3 4 -6 -2 -5 -13z"/>
<path d="M3068 5470 c8 -235 5 -316 -18 -465 -19 -129 -40 -192 -97 -295 -47
-85 -113 -183 -120 -177 -2 3 9 45 26 94 48 139 87 315 111 505 12 90 9 155
-4 83 -4 -22 -18 -105 -32 -185 -50 -282 -114 -492 -189 -617 -50 -84 -217
-299 -293 -376 -39 -39 -44 -49 -32 -57 8 -5 24 -10 35 -9 18 0 18 1 -4 13
-15 8 -20 16 -13 20 7 4 20 2 31 -4 30 -15 97 -12 111 5 11 13 11 20 0 40 -7
13 -10 31 -6 40 3 9 2 14 -3 11 -5 -3 -8 5 -8 18 0 15 15 40 42 66 l42 42 7
-29 c12 -46 34 -73 61 -73 32 0 49 32 42 82 l-5 39 65 -4 c41 -2 68 -9 75 -18
6 -10 7 -2 3 25 -4 22 -13 49 -21 60 -24 35 -17 39 64 33 63 -5 73 -4 57 6
-11 6 -36 28 -55 47 -19 19 -54 44 -77 54 -24 10 -43 23 -43 27 0 4 22 37 49
73 79 104 167 277 220 430 l17 49 13 -174 c24 -315 14 -489 -40 -659 -26 -83
-42 -112 -98 -185 l-46 -60 60 34 c173 97 338 278 446 490 22 42 39 67 39 56
-1 -50 -62 -291 -84 -331 -40 -71 -10 -40 34 37 23 38 38 74 35 79 -4 6 5 56
19 113 23 97 47 217 81 407 19 111 30 281 16 259 -5 -8 -15 -56 -21 -105 -20
-163 -74 -376 -123 -486 -26 -58 -95 -168 -157 -248 -40 -53 -210 -211 -260
-243 l-35 -22 32 45 c17 25 42 69 54 98 13 28 27 52 31 52 5 0 7 4 4 9 -3 5 3
46 14 92 59 253 95 551 73 608 -7 18 -10 -2 -12 -80 -2 -57 -6 -124 -10 -149
-6 -38 -9 -25 -19 90 -7 74 -19 198 -27 275 -8 77 -22 221 -30 320 -26 291
-34 333 -27 125z m-519 -1416 c31 -40 27 -47 -24 -41 -59 6 -63 12 -35 42 29
31 34 31 59 -1z"/>
<path d="M1970 5513 c-32 -256 4 -628 95 -976 14 -53 25 -101 25 -105 -1 -20
-23 33 -51 121 -17 55 -32 97 -34 95 -7 -7 43 -177 83 -278 67 -168 209 -408
302 -508 11 -12 20 -24 20 -27 0 -3 37 -43 82 -88 45 -45 81 -86 79 -90 -1 -5
3 -6 8 -3 5 4 16 0 24 -8 26 -26 140 -96 146 -90 3 4 1 9 -6 11 -28 10 -155
114 -226 185 -130 131 -213 256 -201 302 l6 25 28 -33 c19 -22 28 -41 26 -59
-6 -49 11 -28 38 49 66 185 70 212 70 439 -1 240 -14 648 -21 642 -2 -3 -4
-87 -4 -188 1 -210 -14 -433 -34 -530 -17 -79 -52 -176 -90 -244 -48 -87 -47
-88 -98 17 -119 247 -161 490 -151 883 3 121 9 272 14 335 17 202 6 212 -24
20 -8 -58 -23 -179 -32 -270 -8 -91 -17 -167 -19 -169 -6 -5 -27 79 -32 124
-12 122 -17 294 -11 399 4 66 6 121 4 123 -2 2 -9 -45 -16 -104z m477 -1300
c-3 -10 -11 -42 -17 -70 -7 -29 -15 -53 -19 -53 -9 0 -41 55 -41 70 0 14 58
70 72 70 5 0 7 -8 5 -17z"/>
<path d="M5150 5562 c54 -89 63 -125 64 -279 0 -80 5 -146 11 -152 15 -15 1
285 -15 334 -13 39 -75 145 -85 145 -3 0 9 -22 25 -48z"/>
<path d="M5028 5490 c17 -31 54 -96 81 -145 28 -50 51 -85 51 -79 0 12 -137
254 -152 269 -6 6 3 -15 20 -45z"/>
<path d="M4950 5442 c0 -18 95 -322 146 -467 l14 -40 -6 38 c-3 21 -8 45 -11
53 -3 8 -1 14 3 14 10 0 95 -145 118 -201 8 -20 31 -88 50 -150 40 -129 42
-130 21 -9 -17 98 -62 196 -143 315 -45 66 -65 112 -119 270 -36 104 -67 192
-69 194 -2 2 -4 -5 -4 -17z"/>
<path d="M1410 5198 c-266 -761 -360 -1092 -400 -1413 -17 -132 -15 -392 4
-513 14 -95 44 -218 51 -210 1 2 -6 44 -16 93 -59 286 -51 555 27 935 38 186
57 252 145 510 118 344 219 653 215 658 -2 2 -14 -25 -26 -60z"/>
<path d="M1592 5107 c-31 -92 -75 -259 -75 -284 1 -13 -2 -21 -7 -18 -4 2 -5
-7 -2 -22 4 -19 2 -24 -8 -18 -9 5 -10 2 -5 -14 3 -11 2 -29 -4 -38 -8 -14
-11 -15 -11 -3 -1 19 -110 -267 -110 -288 0 -25 15 -2 30 45 7 23 17 40 22 37
5 -3 6 -15 2 -27 -9 -30 -120 -331 -192 -517 -60 -158 -91 -275 -117 -451 -14
-89 -21 -258 -11 -248 2 2 9 56 15 119 25 250 78 443 221 810 49 124 98 256
110 293 12 37 24 67 26 67 6 0 -3 -739 -10 -860 -4 -77 -4 -79 4 -25 14 97 29
400 34 690 5 307 17 409 77 649 22 87 39 160 36 162 -2 2 -13 -24 -25 -59z"/>
<path d="M4361 5104 c0 -11 3 -14 6 -6 3 7 2 16 -1 19 -3 4 -6 -2 -5 -13z"/>
<path d="M1647 4645 c8 -320 10 -345 18 -353 10 -9 -3 436 -15 508 -6 36 -7
-16 -3 -155z"/>
<path d="M3778 4775 c-38 -10 -108 -49 -108 -59 0 -2 22 8 49 21 27 14 71 31
98 38 26 7 39 13 28 13 -11 0 -41 -6 -67 -13z"/>
<path d="M4221 4510 c-9 -5 -14 -28 -15 -59 -1 -34 -6 -55 -16 -62 -11 -8 -6
-9 20 -5 19 4 37 10 41 14 12 14 20 62 9 62 -5 0 -10 11 -10 24 0 29 -10 38
-29 26z m4 -50 c3 -5 1 -10 -4 -10 -6 0 -11 5 -11 10 0 6 2 10 4 10 3 0 8 -4
11 -10z"/>
<path d="M4797 4471 c-4 -24 -5 -46 -2 -49 11 -11 16 8 13 49 l-3 44 -8 -44z"/>
<path d="M3290 4469 c-7 -11 -10 -23 -7 -25 2 -2 9 7 15 21 14 30 7 33 -8 4z"/>
<path d="M3850 4458 c0 -13 30 -71 48 -90 8 -10 28 -18 44 -18 l29 0 -20 29
c-11 15 -25 40 -30 53 -7 18 -19 27 -40 30 -17 3 -31 1 -31 -4z"/>
<path d="M4751 4360 c-2 -8 -5 -26 -6 -40 -5 -32 -100 -235 -161 -340 -54 -95
-133 -183 -237 -266 -92 -74 -97 -79 -67 -64 52 26 147 99 193 149 l49 52 -7
-33 c-54 -253 -229 -507 -562 -813 -193 -179 -244 -194 -429 -127 -441 160
-564 216 -690 309 -78 59 -170 154 -221 229 -25 36 -93 153 -93 159 0 2 40 -7
88 -20 94 -24 224 -43 186 -26 -11 5 -43 12 -70 15 -84 9 -134 26 -225 71 -54
28 -185 113 -210 137 -8 7 -27 21 -42 31 -17 11 -26 24 -23 33 3 7 2 13 -2 13
-21 -3 -30 5 -57 51 -26 44 -45 62 -45 44 0 -3 21 -37 47 -76 63 -91 102 -168
96 -185 -3 -7 0 -13 7 -13 6 0 8 -4 5 -10 -6 -10 23 -120 31 -120 3 0 2 10 -1
23 -5 17 -4 19 4 7 6 -8 8 -29 5 -46 -3 -18 -1 -35 5 -38 6 -4 11 -17 12 -29
0 -21 1 -21 8 -3 6 16 13 4 35 -55 47 -124 56 -152 52 -156 -4 -5 -46 79 -46
93 0 5 -7 22 -15 38 -9 16 -13 36 -10 43 3 8 0 11 -6 7 -6 -3 -9 -19 -5 -35 3
-16 3 -29 0 -29 -15 0 -77 82 -116 153 -23 42 -46 77 -50 77 -11 0 -10 -14 1
-25 5 -6 19 -38 31 -73 11 -35 26 -73 32 -85 17 -33 22 -47 43 -109 17 -52 17
-59 3 -75 -8 -10 -13 -24 -11 -30 7 -20 23 -15 23 7 0 12 7 20 16 20 13 0 12
-5 -6 -35 -12 -19 -19 -39 -16 -44 4 -5 2 -12 -4 -16 -5 -3 -10 -1 -10 5 0 7
-7 10 -15 6 -10 -3 -15 1 -15 12 0 10 -7 27 -16 38 -14 18 -15 18 -8 -6 4 -14
8 -33 8 -42 0 -9 3 -15 6 -13 3 2 12 -2 21 -8 19 -14 47 -63 30 -53 -16 10
-13 2 8 -22 10 -12 22 -18 26 -14 5 4 5 1 1 -5 -7 -13 2 -27 42 -68 12 -12 22
-27 22 -33 0 -6 8 -16 18 -21 9 -6 13 -11 9 -11 -13 0 20 -30 34 -30 7 0 10
-3 7 -6 -10 -9 190 -210 248 -250 30 -21 54 -39 54 -41 0 -2 -18 6 -39 17
-242 123 -500 433 -696 835 -102 211 -163 387 -195 565 -29 160 -41 203 -35
125 3 -33 7 -71 10 -85 17 -106 35 -236 40 -295 12 -147 28 -265 56 -422 16
-89 34 -195 39 -235 13 -99 161 -571 175 -556 2 2 -11 44 -27 93 -17 50 -49
167 -73 260 -39 158 -41 173 -28 209 12 35 37 174 46 251 l3 30 17 -38 c29
-62 135 -237 190 -311 l51 -69 19 -131 c13 -91 20 -219 24 -421 3 -159 9 -294
14 -299 18 -19 12 497 -6 629 -8 55 -15 116 -15 135 l1 35 28 -35 c16 -19 27
-39 24 -44 -4 -5 -2 -6 4 -3 11 7 55 -38 46 -47 -4 -3 -2 -6 4 -6 6 0 44 -25
85 -55 l75 -54 6 -59 c6 -74 29 -123 66 -145 47 -27 84 -22 123 18 l33 35 80
-35 c95 -40 175 -62 262 -71 59 -6 63 -8 63 -32 0 -30 -72 -186 -124 -265 -62
-99 -231 -244 -358 -310 -103 -54 -99 -51 -216 -125 -46 -29 -88 -49 -94 -46
-7 4 -8 2 -4 -4 8 -13 -28 -35 -39 -24 -5 4 -5 2 -2 -4 11 -19 -17 -23 -38 -7
-19 15 -19 15 4 8 16 -5 21 -4 17 4 -4 6 -3 11 1 11 5 0 18 7 29 16 18 15 18
15 -3 5 -12 -6 -30 -8 -40 -5 -15 5 -15 4 -3 -5 12 -9 11 -11 -7 -11 -13 0
-23 -4 -23 -10 0 -5 -7 -10 -16 -10 -13 0 -15 6 -10 27 6 29 41 311 49 396 3
26 1 49 -3 52 -9 6 -20 -45 -20 -95 0 -67 -30 -283 -50 -352 -14 -53 -15 -66
-4 -61 7 3 12 10 11 16 -2 14 45 10 54 -4 3 -5 1 -29 -5 -54 l-10 -45 -131
-51 c-71 -28 -188 -85 -260 -127 -71 -41 -155 -89 -185 -106 -76 -43 -145 -93
-202 -145 l-48 -44 0 121 c0 129 16 317 29 342 5 10 -15 85 -55 205 -34 105
-63 183 -63 174 -1 -8 22 -84 49 -167 30 -91 50 -169 49 -194 0 -69 -24 -244
-31 -233 -7 12 -24 128 -34 230 -4 39 -8 79 -11 90 -2 11 -8 52 -12 90 l-8 70
-2 -60 c-1 -74 22 -273 49 -419 22 -121 26 -181 10 -156 -14 21 -12 4 5 -60
l14 -54 -35 -53 c-69 -105 -106 -214 -119 -358 -9 -98 17 -297 56 -422 29 -94
35 -103 57 -103 19 0 23 4 17 17 -16 44 -27 120 -23 170 11 129 111 177 323
154 169 -17 273 -79 341 -201 14 -25 17 -34 7 -20 -36 50 -96 110 -104 104 -5
-3 -9 2 -9 10 0 14 -12 20 -32 17 -5 0 -8 4 -8 10 0 6 -7 9 -15 5 -8 -3 -18 0
-22 7 -5 7 -21 18 -36 25 -34 14 -59 16 -37 2 9 -6 10 -10 3 -10 -6 0 -14 4
-17 9 -9 13 -69 22 -166 23 -114 2 -153 -19 -195 -101 -19 -38 -17 -144 3
-194 l12 -27 586 0 586 1 67 68 c113 116 216 170 364 191 80 12 168 1 254 -32
73 -27 141 -94 173 -171 13 -31 30 -57 38 -57 15 0 13 10 -18 91 -54 144 -194
209 -424 196 -120 -7 -100 6 38 23 115 15 189 10 273 -19 61 -21 137 -60 130
-67 -2 -3 -20 3 -40 11 -21 8 -37 11 -37 6 0 -13 64 -41 93 -41 18 0 38 -14
66 -48 23 -26 41 -51 41 -57 0 -5 10 -29 22 -52 l23 -43 162 0 c90 0 163 2
163 5 0 6 -21 41 -58 97 -13 21 -21 42 -16 49 4 7 3 10 -3 6 -26 -16 -158 325
-199 513 -24 112 -18 300 17 575 30 236 128 490 286 740 24 39 32 57 18 40
-14 -16 -49 -67 -78 -113 -44 -70 -97 -144 -270 -376 -34 -45 -260 -330 -273
-343 -6 -6 -24 -42 -39 -80 -52 -129 -58 -143 -62 -139 -8 8 71 207 131 325
97 194 276 466 391 596 61 69 130 157 182 233 20 28 40 52 45 52 5 0 6 5 2 12
-5 7 -2 9 9 5 12 -4 14 -2 10 10 -4 9 -2 14 3 10 15 -9 25 1 110 113 97 127
147 200 142 206 -7 6 -42 -35 -96 -114 -107 -156 -160 -204 -242 -217 l-45 -8
50 38 c54 40 83 69 160 160 58 67 163 158 175 150 13 -8 127 175 180 289 57
122 68 163 86 331 13 127 20 454 8 443 -3 -4 -5 -61 -5 -127 1 -75 -3 -121 -9
-121 -5 0 -10 -12 -10 -27 0 -19 -3 -24 -9 -15 -14 23 -23 -63 -9 -95 11 -26
12 -23 21 47 6 41 12 70 14 64 10 -29 -55 -406 -73 -423 -8 -8 3 458 19 774 7
134 15 225 19 205 3 -19 5 -54 4 -78 -3 -64 11 -61 24 5 7 32 20 90 31 128 46
176 70 306 66 367 -2 35 -5 56 -6 48z m-148 -502 c1 -139 -23 -823 -33 -911
-11 -112 -32 -155 -89 -186 -42 -23 -133 -33 -159 -18 -5 4 -22 37 -38 74 -25
62 -28 81 -32 226 -6 221 -3 231 75 335 37 48 69 89 72 92 11 9 89 184 105
235 8 28 20 78 25 112 10 64 49 139 65 123 5 -5 9 -42 9 -82z m-2266 -184 c21
-14 37 -30 36 -35 -2 -4 3 -6 10 -3 8 3 25 -5 38 -16 20 -18 21 -20 3 -11 -16
8 -21 7 -21 -5 0 -7 4 -14 8 -14 4 0 5 -8 2 -19 -3 -10 1 -22 8 -26 7 -5 10
-4 5 3 -3 6 -2 13 4 17 5 3 10 -3 10 -14 0 -23 16 -28 23 -8 2 6 8 9 12 5 4
-4 2 -14 -4 -22 -9 -11 -9 -16 0 -22 8 -4 9 -3 5 4 -13 22 12 12 31 -11 10
-13 23 -22 29 -20 12 4 28 -26 19 -35 -3 -3 -5 0 -5 6 0 19 -28 14 -43 -9 -8
-11 -13 -29 -10 -40 4 -14 0 -19 -16 -19 -12 0 -19 4 -16 10 4 6 -5 7 -24 4
-23 -5 -32 -2 -44 17 -19 29 -79 199 -70 199 3 0 1 6 -4 13 -12 14 -34 77 -28
77 2 0 21 -12 42 -26z m-416 -107 c11 -21 15 -36 9 -32 -5 3 -10 1 -10 -4 0
-6 4 -11 10 -11 18 0 29 -36 20 -66 -7 -25 -8 -26 -9 -6 -1 14 -5 21 -12 16
-7 -4 -7 1 1 16 12 23 4 43 -9 21 -5 -8 -10 4 -14 33 -4 25 -9 58 -12 73 -3
16 -2 21 1 13 3 -8 15 -32 25 -53z m543 7 c5 -14 4 -15 -9 -4 -17 14 -19 20
-6 20 5 0 12 -7 15 -16z m-564 -42 c0 -7 -4 -10 -10 -7 -5 3 -10 16 -10 28 0
18 2 19 10 7 5 -8 10 -21 10 -28z m604 2 c3 -8 2 -12 -4 -9 -6 3 -10 10 -10
16 0 14 7 11 14 -7z m-164 -69 c0 -5 -5 -3 -10 5 -5 8 -10 20 -10 25 0 6 5 3
10 -5 5 -8 10 -19 10 -25z m-443 3 c-3 -8 -6 -5 -6 6 -1 11 2 17 5 13 3 -3 4
-12 1 -19z m83 -33 c0 -8 -2 -15 -4 -15 -2 0 -6 7 -10 15 -3 8 -1 15 4 15 6 0
10 -7 10 -15z m-63 -25 c-6 -16 -13 -28 -15 -26 -6 6 10 56 18 56 5 0 3 -13
-3 -30z m620 -77 c-2 -2 -19 2 -37 9 -29 10 -31 12 -14 18 17 7 61 -17 51 -27z
m88 28 c3 -5 1 -12 -5 -16 -5 -3 -10 1 -10 9 0 18 6 21 15 7z m-124 -41 l47
-12 11 -74 c16 -108 14 -138 -9 -159 -11 -10 -20 -16 -20 -14 0 2 -27 67 -60
143 -33 77 -60 143 -60 148 0 5 10 2 23 -6 12 -8 43 -20 68 -26z m229 -73 c88
-84 172 -139 331 -218 l86 -42 21 -66 c30 -93 63 -300 52 -320 -5 -10 -7 -35
-5 -57 15 -141 15 -136 -14 -129 -107 26 -354 193 -445 302 l-26 31 78 -5 c44
-3 87 -1 96 4 14 8 4 14 -51 33 -37 12 -86 32 -108 43 l-39 20 34 16 c23 10
36 24 38 39 4 26 -23 62 -45 62 -10 0 -12 10 -7 38 8 50 -9 89 -50 113 -31 18
-35 25 -51 110 -15 77 -16 92 -4 100 8 5 16 9 18 9 2 0 43 -37 91 -83z m-132
-27 l0 -25 -8 25 c-4 14 -8 34 -8 45 l-1 20 9 -20 c5 -11 8 -31 8 -45z m-661
8 c-3 -7 -5 -2 -5 12 0 14 2 19 5 13 2 -7 2 -19 0 -25z m2289 -42 c-6 -40 -10
-45 -52 -61 -64 -24 -194 -153 -230 -228 -27 -54 -33 -60 -81 -76 -112 -38
-173 -106 -204 -231 l-16 -64 -21 39 c-58 109 -125 138 -219 96 l-42 -19 -17
48 c-29 81 -103 143 -105 88 0 -13 -13 26 -29 87 -16 60 -27 111 -26 112 1 1
97 -34 213 -78 176 -66 222 -80 273 -80 110 -2 186 52 445 316 61 62 112 109
114 103 1 -5 0 -29 -3 -52z m-2245 -7 c-5 -26 -9 -34 -10 -19 -1 27 9 73 15
67 2 -2 0 -23 -5 -48z m-34 -11 c-3 -8 -6 -5 -6 6 -1 11 2 17 5 13 3 -3 4 -12
1 -19z m664 -46 c-7 -12 -9 -5 -9 24 0 33 2 36 9 16 5 -14 5 -30 0 -40z m-277
12 c3 -8 2 -12 -4 -9 -6 3 -10 10 -10 16 0 14 7 11 14 -7z m362 -59 c12 -19
13 -34 5 -86 -9 -53 -8 -66 5 -80 18 -20 44 -15 44 8 0 8 5 11 11 8 7 -5 6
-14 -4 -28 -19 -30 -33 -31 -57 -7 -18 18 -20 28 -14 83 6 58 4 65 -20 94 -14
17 -26 33 -26 36 0 13 43 -8 56 -28z m-85 1 c-13 -7 -29 -23 -36 -35 -10 -19
-13 -20 -24 -8 -10 12 -7 19 15 36 15 12 36 21 48 21 20 -1 20 -1 -3 -14z m45
-29 c3 -8 4 -47 2 -88 l-3 -74 -32 69 c-18 38 -33 70 -33 72 0 1 7 10 16 18
19 20 43 21 50 3z m607 -473 c3 -49 2 -98 -3 -109 -6 -14 -9 -1 -9 45 -1 36
-3 106 -5 155 -4 113 9 41 17 -91z m1175 83 c-32 -26 -128 -81 -128 -73 0 8
133 96 145 96 5 -1 -2 -11 -17 -23z m-1670 -150 c36 -22 39 -33 14 -64 -58
-74 -159 1 -161 120 l-1 38 58 -37 c31 -21 72 -46 90 -57z m1320 -119 c-53
-69 -181 -178 -194 -166 -5 6 14 22 96 81 25 18 61 54 80 79 19 26 36 45 39
43 2 -3 -8 -19 -21 -37z m-128 -65 c0 -5 -5 -15 -10 -23 -8 -12 -10 -11 -10 8
0 12 5 22 10 22 6 0 10 -3 10 -7z m-157 -34 c20 -5 37 -12 37 -14 0 -9 -75
-77 -115 -105 -54 -37 -220 -120 -242 -120 -9 0 21 23 67 52 121 74 163 128
100 128 -50 0 -136 -39 -248 -111 -114 -74 -86 -42 35 40 66 45 239 122 273
121 8 0 23 -7 33 -14 16 -13 13 -17 -35 -61 -29 -27 -44 -43 -33 -37 11 6 41
29 65 51 42 38 44 42 28 55 -35 26 -23 32 35 15z m7 -84 c-48 -50 -294 -193
-304 -177 -5 8 143 87 157 84 4 -1 7 1 7 6 0 4 13 13 28 20 16 6 53 34 83 61
61 55 80 59 29 6z m265 -44 c-6 -5 -55 -24 -110 -41 -114 -36 -232 -95 -314
-155 -31 -23 -81 -57 -111 -77 -30 -19 -70 -50 -89 -69 -33 -33 -34 -33 -14
-4 85 122 330 268 553 330 102 28 96 27 85 16z m-621 -147 c12 -32 5 -52 -35
-98 -48 -54 -155 -133 -198 -146 -23 -6 -33 -4 -45 9 -9 10 -16 22 -16 27 0
26 193 190 251 213 33 13 36 13 43 -5z m-214 -28 c0 -2 -8 -10 -17 -17 -16
-13 -17 -12 -4 4 13 16 21 21 21 13z m-166 -56 c-14 -22 -24 -46 -20 -55 4
-10 -1 -15 -14 -15 -11 0 -20 -6 -21 -12 0 -10 -2 -10 -6 -1 -5 13 23 58 60
101 30 33 31 27 1 -18z m81 -79 c3 -5 0 -13 -6 -17 -8 -5 -9 -3 -4 6 6 10 4
12 -9 7 -10 -4 -15 -3 -11 3 8 13 22 13 30 1z m-176 -37 c-15 -19 -69 -57 -69
-50 0 14 75 87 78 77 2 -7 -2 -18 -9 -27z m362 -39 c-22 -24 -53 -70 -68 -101
-25 -50 -31 -55 -55 -52 -15 3 -26 3 -24 1 7 -7 -57 -68 -110 -106 -44 -31
-94 -83 -162 -167 l-20 -25 -11 41 c-12 47 -43 78 -86 89 -28 7 -26 8 38 29
37 13 80 32 95 44 15 12 41 29 57 38 l30 17 -25 -28 c-32 -36 -15 -30 89 34
46 28 92 51 102 51 10 0 28 15 40 33 32 45 130 147 142 147 5 0 -9 -20 -32
-45z m352 30 c-3 -9 -8 -14 -10 -11 -3 3 -2 9 2 15 9 16 15 13 8 -4z m-798
-29 c-10 -15 -46 -49 -80 -76 -56 -45 -143 -148 -173 -206 -9 -17 -27 -22
-117 -33 -58 -6 -113 -14 -123 -17 -14 -5 -14 -4 -2 4 8 5 41 15 72 22 39 7
59 17 63 29 3 9 53 66 113 127 88 89 120 116 182 146 41 20 76 35 78 33 2 -2
-4 -15 -13 -29z m496 -39 c-10 -9 -11 -8 -5 6 3 10 9 15 12 12 3 -3 0 -11 -7
-18z m-736 -88 c-102 -103 -323 -231 -313 -181 2 9 37 40 78 68 85 58 260 162
275 163 5 1 -13 -22 -40 -50z m925 -43 c0 -2 -8 -10 -17 -17 -16 -13 -17 -12
-4 4 13 16 21 21 21 13z m-951 -187 c36 -13 71 -71 70 -116 0 -28 0 -28 -10
-4 -6 15 -15 21 -24 17 -8 -3 -15 0 -15 7 0 17 -40 19 -65 3 -18 -12 -25 -9
-64 25 -24 22 -38 39 -31 39 8 0 11 3 8 6 -4 3 -15 1 -25 -5 -11 -5 -51 -12
-90 -14 -39 -3 -76 -8 -83 -12 -6 -4 -14 -5 -17 -2 -11 12 67 41 142 53 104
16 164 17 204 3z m-344 -108 c17 -7 15 -9 -15 -16 -19 -4 -42 -13 -50 -20 -8
-7 -30 -15 -49 -19 -131 -24 -543 -287 -635 -404 -130 -166 -171 -347 -132
-588 19 -117 20 -136 6 -114 -5 9 -18 67 -31 130 -18 96 -21 134 -15 230 7
133 23 199 68 290 36 71 140 187 229 256 134 103 342 202 514 245 80 20 83 20
110 10z m381 -29 c-18 -16 -18 -16 -6 6 6 13 14 21 18 18 3 -4 -2 -14 -12 -24z
m105 -208 c20 -23 45 -56 54 -74 17 -32 34 -150 22 -150 -3 0 -11 26 -17 58
-16 82 -27 106 -71 152 -21 22 -41 53 -45 68 -5 25 -4 25 7 7 7 -11 29 -39 50
-61z m710 9 c-12 -20 -14 -14 -5 12 4 9 9 14 11 11 3 -2 0 -13 -6 -23z m-48
-108 c-3 -9 -8 -14 -10 -11 -3 3 -2 9 2 15 9 16 15 13 8 -4z m-34 -93 c-6 -17
-18 -33 -27 -37 -14 -5 -15 -4 0 12 9 10 19 28 23 41 4 13 9 22 11 19 2 -2 -1
-18 -7 -35z m-969 -76 c0 -11 0 -11 -29 34 l-23 35 26 -30 c14 -16 26 -34 26
-39z m672 -153 c-50 -100 -102 -255 -102 -306 0 -31 -3 -38 -15 -33 -8 3 -15
2 -15 -2 0 -5 -16 -16 -35 -25 -19 -9 -35 -15 -35 -14 0 2 -11 61 -25 132 -26
137 -34 253 -14 225 8 -12 9 -10 4 8 -8 28 10 52 39 53 11 0 16 3 9 5 -13 6
-6 34 9 34 5 0 6 -4 3 -10 -3 -5 3 -10 14 -10 12 0 21 7 21 16 0 12 10 15 48
13 93 -4 122 0 123 19 1 12 3 11 6 -5 2 -12 -13 -55 -35 -100z m239 3 c-5 -11
-6 -22 -10 -191 -3 -130 -18 -117 -20 18 -2 93 21 255 29 212 4 -16 4 -34 1
-39z m574 -471 c8 -19 8 -19 -8 -3 -9 9 -17 22 -17 28 0 6 -4 9 -9 6 -15 -9
-31 18 -21 34 16 25 11 32 -9 13 -10 -10 -26 -38 -34 -63 -10 -28 -16 -37 -17
-23 0 25 26 96 48 131 14 22 15 21 37 -40 12 -35 26 -72 30 -83z m-1225 -118
c0 -2 -10 -12 -22 -23 l-23 -19 19 23 c18 21 26 27 26 19z"/>
<path d="M4410 3399 c0 -32 32 -191 37 -185 2 2 -1 30 -7 63 -6 32 -13 76 -16
98 -7 47 -14 59 -14 24z"/>
<path d="M4451 3190 c0 -8 6 -28 14 -45 17 -39 18 -21 0 25 -7 19 -14 28 -14
20z"/>
<path d="M2404 3494 c-16 -23 -16 -28 -1 -60 19 -39 38 -43 67 -14 26 26 25
52 -3 78 -30 28 -43 28 -63 -4z"/>
<path d="M3060 690 c0 -16 2 -30 4 -30 2 0 6 14 8 30 3 17 1 30 -4 30 -4 0 -8
-13 -8 -30z"/>
<path d="M3092 700 c0 -14 2 -19 5 -12 2 6 2 18 0 25 -3 6 -5 1 -5 -13z"/>
<path d="M3871 244 c0 -11 3 -14 6 -6 3 7 2 16 -1 19 -3 4 -6 -2 -5 -13z"/>
<path d="M4689 4273 c-1 -5 -3 -18 -4 -29 -3 -34 -16 -49 -26 -33 -7 11 -9 10
-9 -3 0 -9 -18 -52 -40 -94 -22 -43 -38 -80 -35 -82 3 -3 5 -1 5 5 0 6 20 37
44 70 63 84 102 173 76 173 -5 0 -11 -3 -11 -7z"/>
<path d="M2291 4204 c0 -11 3 -14 6 -6 3 7 2 16 -1 19 -3 4 -6 -2 -5 -13z"/>
<path d="M2271 4164 c0 -11 3 -14 6 -6 3 7 2 16 -1 19 -3 4 -6 -2 -5 -13z"/>
<path d="M4743 4000 c0 -47 2 -66 4 -42 2 23 2 61 0 85 -2 23 -4 4 -4 -43z"/>
<path d="M4335 3968 c-95 -192 -187 -315 -290 -385 l-50 -34 45 7 c25 4 59 13
75 21 l30 14 -34 -6 c-34 -5 -34 -5 -16 15 10 12 25 18 32 15 8 -2 12 -1 9 3
-2 4 18 32 45 62 27 30 69 91 94 135 26 44 50 87 55 95 15 25 62 151 58 155
-2 2 -26 -41 -53 -97z"/>
<path d="M1693 3985 c0 -27 2 -38 4 -22 2 15 2 37 0 50 -2 12 -4 0 -4 -28z"/>
<path d="M3412 3970 c0 -14 2 -19 5 -12 2 6 2 18 0 25 -3 6 -5 1 -5 -13z"/>
<path d="M4510 3968 c-12 -22 -12 -22 6 -6 10 10 15 20 12 24 -4 3 -12 -5 -18
-18z"/>
<path d="M4962 3685 c0 -16 2 -22 5 -12 2 9 2 23 0 30 -3 6 -5 -1 -5 -18z"/>
<path d="M1940 3646 c0 -8 4 -17 9 -20 5 -4 7 3 4 14 -6 23 -13 26 -13 6z"/>
<path d="M4953 3610 c0 -25 2 -35 4 -22 2 12 2 32 0 45 -2 12 -4 2 -4 -23z"/>
<path d="M1967 3593 c-4 -3 -7 -11 -7 -17 0 -6 5 -5 12 2 6 6 9 14 7 17 -3 3
-9 2 -12 -2z"/>
<path d="M4931 3485 c-6 -42 -20 -102 -31 -135 -11 -33 -20 -69 -20 -80 0 -11
-4 -20 -9 -20 -5 0 -13 -15 -17 -32 -7 -32 -7 -32 -17 -10 -11 25 -27 29 -27
7 0 -8 -5 -15 -10 -15 -6 0 -8 12 -5 28 5 26 5 26 -5 3 -13 -31 -24 -22 -11
10 5 13 6 42 2 64 -6 35 -8 29 -15 -48 -4 -48 -4 -116 0 -150 4 -34 7 -66 6
-70 -2 -5 2 -6 8 -2 6 4 8 25 4 55 -5 37 -2 54 10 72 16 22 17 21 13 -43 -3
-37 -7 -71 -11 -77 -3 -6 -2 -13 3 -17 10 -6 8 -68 -4 -105 -3 -11 -2 -20 2
-20 13 0 59 138 108 325 21 81 53 335 42 335 -2 0 -10 -34 -16 -75z m-154
-317 c-3 -7 -5 -2 -5 12 0 14 2 19 5 13 2 -7 2 -19 0 -25z"/>
<path d="M3835 3530 c-3 -5 -1 -10 4 -10 6 0 11 5 11 10 0 6 -2 10 -4 10 -3 0
-8 -4 -11 -10z"/>
<path d="M2000 3505 c0 -11 49 -94 50 -84 0 4 -11 27 -25 50 -14 24 -25 40
-25 34z"/>
<path d="M4646 3454 c-3 -26 -4 -49 -2 -52 3 -2 8 17 11 43 4 25 5 48 3 51 -3
2 -8 -17 -12 -42z"/>
<path d="M3365 3410 c-27 -7 -27 -8 -5 -8 14 0 36 4 50 8 20 6 21 8 5 8 -11 0
-33 -4 -50 -8z"/>
<path d="M7191 3364 c0 -11 3 -14 6 -6 3 7 2 16 -1 19 -3 4 -6 -2 -5 -13z"/>
<path d="M1801 3274 c0 -11 3 -14 6 -6 3 7 2 16 -1 19 -3 4 -6 -2 -5 -13z"/>
<path d="M1697 3250 c-3 -19 -8 -80 -12 -135 -3 -55 -12 -143 -21 -195 -8 -52
-17 -129 -19 -170 l-4 -75 13 55 c7 30 19 89 26 130 18 111 20 123 27 116 4
-4 6 -27 4 -51 -2 -39 0 -45 17 -45 16 0 20 9 25 53 6 63 0 76 -9 18 -4 -22
-10 -41 -15 -41 -14 0 -10 42 6 73 11 21 12 41 6 85 l-9 57 -1 -57 c-1 -36 -5
-58 -12 -58 -8 0 -10 30 -5 103 3 56 2 118 -2 137 l-9 35 -6 -35z"/>
<path d="M1821 3184 c0 -11 3 -14 6 -6 3 7 2 16 -1 19 -3 4 -6 -2 -5 -13z"/>
<path d="M2180 3191 c0 -6 4 -13 10 -16 6 -3 7 1 4 9 -7 18 -14 21 -14 7z"/>
<path d="M1836 3125 c3 -22 16 -86 30 -142 13 -57 24 -114 24 -127 0 -31 -10
-57 -20 -51 -4 2 -5 -7 -2 -20 2 -14 1 -33 -3 -42 -5 -10 -10 -27 -12 -38 -4
-26 -56 -204 -123 -425 -75 -248 -92 -307 -135 -477 -26 -101 -45 -188 -43
-194 2 -5 30 88 62 208 32 120 99 339 148 487 49 149 101 308 114 355 14 48
27 93 30 101 3 8 15 -14 28 -50 69 -195 212 -460 311 -575 14 -16 -11 26 -56
95 -45 69 -91 145 -104 170 -55 109 -137 328 -170 456 -85 327 -90 342 -79
269z"/>
<path d="M1762 3065 c0 -16 2 -22 5 -12 2 9 2 23 0 30 -3 6 -5 -1 -5 -18z"/>
<path d="M4751 3064 c0 -11 3 -14 6 -6 3 7 2 16 -1 19 -3 4 -6 -2 -5 -13z"/>
<path d="M1765 3010 c-3 -5 -4 -14 -1 -19 8 -12 8 -131 1 -263 -3 -71 -2 -108
5 -108 6 0 9 10 7 23 -3 12 2 65 9 117 20 131 6 293 -21 250z"/>
<path d="M4762 2950 c0 -14 2 -19 5 -12 2 6 2 18 0 25 -3 6 -5 1 -5 -13z"/>
<path d="M1266 2845 c-9 -26 -7 -32 5 -12 6 10 9 21 6 23 -2 3 -7 -2 -11 -11z"/>
<path d="M2405 2740 c9 -16 18 -30 21 -30 2 0 -2 14 -11 30 -9 17 -18 30 -21
30 -2 0 2 -13 11 -30z"/>
<path d="M1206 2693 c-6 -14 -5 -15 5 -6 7 7 10 15 7 18 -3 3 -9 -2 -12 -12z"/>
<path d="M1678 2683 c0 -16 -1 -35 0 -43 1 -8 -5 -45 -13 -82 -17 -76 -19
-137 -3 -78 5 19 13 49 18 65 16 55 23 165 11 165 -6 0 -12 -12 -13 -27z"/>
<path d="M1400 2653 c-27 -52 -123 -176 -161 -208 -26 -22 -23 -18 45 73 27
35 46 65 44 68 -3 2 -19 -17 -38 -44 -18 -26 -76 -90 -130 -144 -80 -78 -113
-104 -181 -137 -93 -45 -95 -53 -3 -17 70 27 162 83 219 134 94 83 240 276
233 308 -2 8 -14 -7 -28 -33z"/>
<path d="M1632 2640 c0 -14 2 -19 5 -12 2 6 2 18 0 25 -3 6 -5 1 -5 -13z"/>
<path d="M1764 2555 c-3 -8 -4 -20 -2 -27 3 -7 7 -1 10 15 6 29 1 36 -8 12z"/>
<path d="M4466 2533 c-6 -14 -5 -15 5 -6 7 7 10 15 7 18 -3 3 -9 -2 -12 -12z"/>
<path d="M4500 2536 c0 -8 -7 -17 -16 -20 -8 -3 -12 -11 -8 -17 4 -7 0 -9 -14
-5 -11 4 -23 2 -27 -3 -3 -7 0 -8 9 -5 9 3 16 1 16 -5 0 -6 -4 -11 -10 -11 -5
0 -10 -11 -10 -25 0 -14 -5 -25 -11 -25 -6 0 -8 9 -3 23 7 22 6 22 -15 3 -22
-20 -28 -32 -11 -21 16 10 11 -18 -7 -40 -13 -16 -15 -17 -10 -2 13 35 -12 15
-59 -48 -26 -36 -48 -76 -49 -89 0 -13 -12 -39 -26 -57 -19 -26 -25 -43 -22
-74 2 -31 -6 -60 -38 -125 -23 -47 -45 -94 -50 -105 -4 -11 -19 -46 -33 -78
-14 -32 -26 -63 -26 -70 -1 -7 -9 -30 -20 -52 -22 -46 -27 -76 -9 -58 14 14
69 149 69 169 0 8 5 14 10 14 6 0 10 4 10 9 0 18 45 80 58 81 14 0 17 20 3 20
-5 0 -7 9 -4 20 7 27 23 25 23 -3 0 -24 -24 -117 -40 -152 -15 -34 -32 -96
-28 -100 2 -3 21 31 41 75 21 44 42 80 48 80 6 0 8 10 5 23 -3 12 1 7 10 -12
l15 -33 34 53 c19 30 35 57 35 62 0 17 60 101 60 85 0 -10 -4 -18 -10 -18 -5
0 -10 -7 -10 -15 0 -8 -11 -38 -24 -67 -13 -29 -38 -87 -56 -128 -18 -41 -36
-83 -41 -92 -5 -10 -9 -29 -9 -44 0 -14 -19 -78 -41 -142 -79 -222 -116 -374
-160 -644 -26 -160 -36 -418 -20 -526 14 -95 52 -250 75 -304 l16 -38 74 0
c133 0 256 53 332 144 24 28 41 41 45 34 9 -14 -90 -101 -176 -153 l-40 -24
203 -1 204 0 -6 257 c-4 142 -9 278 -11 303 -11 99 -45 565 -45 616 l0 55 -46
19 c-25 11 -52 20 -60 20 -8 0 -11 6 -7 15 3 9 -3 25 -12 35 -11 12 -13 20 -7
20 7 0 12 7 12 15 0 8 8 15 18 16 9 0 12 3 5 5 -7 3 -20 1 -30 -4 -11 -5 -31
-4 -53 4 l-35 13 30 2 c17 1 -6 5 -50 8 -77 6 -151 1 -225 -15 -31 -7 -34 -6
-22 9 18 22 136 47 221 47 39 0 104 -7 146 -17 41 -9 77 -14 78 -12 2 2 1 55
-1 117 -4 108 -5 114 -28 122 -29 12 -30 21 -3 38 12 8 18 19 15 29 -11 29
-26 148 -30 243 -6 144 -18 280 -25 280 -3 0 -19 -20 -34 -44 -38 -61 -68 -83
-34 -26 28 48 28 76 3 152 -15 46 -28 39 -50 -29 -15 -46 -55 -111 -56 -91 0
4 13 41 29 81 17 41 37 108 45 148 8 41 18 84 21 97 5 14 3 22 -4 22 -6 0 -11
-6 -11 -14z m-153 -204 c-10 -10 -17 -25 -17 -32 0 -7 -3 -10 -7 -7 -8 9 17
57 30 57 6 0 3 -8 -6 -18z m-35 -70 c-4 -11 -2 -13 9 -7 12 8 12 6 0 -8 -20
-25 -30 -21 -26 11 2 15 4 32 4 37 1 6 5 4 10 -4 5 -8 7 -21 3 -29z m-14 -70
c2 -7 -3 -12 -12 -12 -9 0 -16 -4 -16 -10 0 -5 -6 -10 -14 -10 -9 0 -12 -8 -8
-25 2 -14 0 -25 -6 -25 -16 0 -7 52 12 65 9 7 16 18 16 24 0 15 22 9 28 -7z
m188 -104 c-18 -26 -22 -17 -5 14 6 11 13 17 16 15 3 -3 -2 -16 -11 -29z m-28
-48 c-7 -10 -14 -18 -15 -16 -6 6 9 36 18 36 5 0 4 -9 -3 -20z m-147 -47 c-12
-20 -14 -14 -5 12 4 9 9 14 11 11 3 -2 0 -13 -6 -23z m-69 -42 c-4 -11 -7 -10
-13 5 -4 10 -8 28 -8 39 -1 17 1 17 12 -5 8 -14 11 -31 9 -39z m39 -30 c-9 -6
-10 -11 -3 -15 6 -4 9 -13 6 -21 -8 -19 -24 -9 -24 14 0 19 20 44 29 35 3 -3
-1 -9 -8 -13z m406 -793 c-3 -7 -5 -2 -5 12 0 14 2 19 5 13 2 -7 2 -19 0 -25z"/>
<path d="M1402 2500 c0 -19 2 -27 5 -17 2 9 2 25 0 35 -3 9 -5 1 -5 -18z"/>
<path d="M2121 2475 c1 -19 18 -51 18 -35 0 8 -4 22 -9 30 -5 8 -9 11 -9 5z"/>
<path d="M1392 2435 c0 -16 2 -22 5 -12 2 9 2 23 0 30 -3 6 -5 -1 -5 -18z"/>
<path d="M1376 2358 c-39 -262 -56 -585 -38 -728 7 -60 8 -41 4 90 -5 166 6
348 34 559 8 62 13 116 11 118 -3 2 -7 -15 -11 -39z"/>
<path d="M6355 2320 c-3 -6 1 -7 9 -4 18 7 21 14 7 14 -6 0 -13 -4 -16 -10z"/>
<path d="M4189 2163 c-13 -16 -12 -17 4 -4 16 13 21 21 13 21 -2 0 -10 -8 -17
-17z"/>
<path d="M4160 2120 c-6 -11 -8 -20 -6 -20 3 0 10 9 16 20 6 11 8 20 6 20 -3
0 -10 -9 -16 -20z"/>
<path d="M4189 2090 c-16 -17 -15 -18 6 -16 16 1 21 6 17 19 -2 9 -5 17 -6 16
0 0 -8 -9 -17 -19z"/>
<path d="M4129 2073 c-13 -16 -12 -17 4 -4 16 13 21 21 13 21 -2 0 -10 -8 -17
-17z"/>
<path d="M4118 1988 c-41 -75 -60 -121 -56 -134 4 -12 -27 -55 -35 -48 -3 3
-3 -5 0 -18 4 -18 3 -20 -6 -8 -8 12 -10 9 -8 -15 1 -20 -2 -29 -11 -27 -8 1
-11 -2 -6 -9 4 -7 0 -17 -8 -23 -17 -12 -51 -86 -44 -93 2 -3 8 6 12 19 7 22
7 22 16 3 6 -14 7 -10 3 15 -5 32 -4 33 9 15 10 -12 15 -15 16 -7 0 7 10 34
22 60 12 26 21 55 19 65 -1 9 3 17 8 17 6 0 11 7 11 15 0 8 5 15 11 15 7 0 9
10 5 26 -4 15 -3 23 2 20 9 -5 19 15 28 59 3 10 16 39 30 63 14 24 24 46 21
48 -3 3 -20 -23 -39 -58z"/>
<path d="M2464 2019 c-3 -6 -2 -15 3 -20 5 -5 9 -1 10 11 2 22 -2 25 -13 9z"/>
<path d="M4131 1959 c-7 -12 -10 -23 -8 -26 3 -3 11 5 17 17 15 28 8 35 -9 9z"/>
<path d="M1462 1875 c0 -16 2 -22 5 -12 2 9 2 23 0 30 -3 6 -5 -1 -5 -18z"/>
<path d="M1491 1814 c0 -11 3 -14 6 -6 3 7 2 16 -1 19 -3 4 -6 -2 -5 -13z"/>
<path d="M2391 1804 c0 -11 3 -14 6 -6 3 7 2 16 -1 19 -3 4 -6 -2 -5 -13z"/>
<path d="M1474 1790 c3 -14 10 -54 15 -90 6 -36 24 -114 41 -173 32 -115 35
-130 20 -107 -5 8 -10 10 -10 4 0 -32 126 -206 164 -226 14 -7 9 1 -12 23 -62
64 -101 134 -127 230 -13 51 -22 104 -20 118 5 22 4 23 -4 6 -5 -11 -10 -18
-10 -15 -8 55 -43 212 -51 230 l-10 25 4 -25z"/>
<path d="M2382 1750 c0 -14 2 -19 5 -12 2 6 2 18 0 25 -3 6 -5 1 -5 -13z"/>
<path d="M1351 1533 c-1 -27 46 -255 59 -286 7 -16 8 -12 4 18 -12 76 -62 290
-63 268z"/>
<path d="M2211 1489 c-18 -11 -31 -23 -28 -26 6 -5 67 34 67 43 0 6 -3 5 -39
-17z"/>
<path d="M2140 1430 c-8 -5 -10 -10 -5 -10 6 0 17 5 25 10 8 5 11 10 5 10 -5
0 -17 -5 -25 -10z"/>
<path d="M3821 1214 c0 -11 3 -14 6 -6 3 7 2 16 -1 19 -3 4 -6 -2 -5 -13z"/>
<path d="M3795 1078 c-28 -146 -25 -309 7 -443 44 -186 70 -226 44 -69 -23
139 -39 388 -31 502 4 56 5 102 2 102 -3 0 -13 -42 -22 -92z"/>
<path d="M5590 166 c0 -2 7 -7 16 -10 8 -3 12 -2 9 4 -6 10 -25 14 -25 6z"/>
<path d="M3615 90 c11 -5 29 -9 40 -9 17 -1 17 1 5 9 -8 5 -26 9 -40 9 -23 0
-23 -1 -5 -9z"/>
<path d="M5680 64 c1 -17 50 -65 63 -62 7 2 -4 18 -25 37 -21 18 -38 29 -38
25z"/>
<path d="M5680 10 c0 -5 5 -10 11 -10 5 0 7 5 4 10 -3 6 -8 10 -11 10 -2 0 -4
-4 -4 -10z"/>
</g>
</svg>
